<svg xmlns="http://www.w3.org/2000/svg" version="1.1" xmlns:xlink="http://www.w3.org/1999/xlink" xmlns:svgjs="http://svgjs.dev/svgjs" width="1000" height="634" viewBox="0 0 1000 634"><g transform="matrix(1,0,0,1,0.1066666666666265,0.6499831932773645)"><svg viewBox="0 0 375 238" data-background-color="#ffffff" preserveAspectRatio="xMidYMid meet" height="634" width="1000" xmlns="http://www.w3.org/2000/svg" xmlns:xlink="http://www.w3.org/1999/xlink"><g id="tight-bounds" transform="matrix(1,0,0,1,-0.03976036071776434,-0.24385705566407978)"><svg viewBox="0 0 375.07952880859375 238.4878387451172" height="238.4878387451172" width="375.07952880859375"><g><svg></svg></g><g><svg viewBox="0 0 375.07952880859375 238.4878387451172" height="238.4878387451172" width="375.07952880859375"><g transform="matrix(1,0,0,1,-10.220239639282227,-8.712142944335938)"><path xmlns="http://www.w3.org/2000/svg" d="M10.22 238.488v-229.776h375.08v229.776l-58.01 0v-10.919h47.091v-207.938h-353.242v207.938h47.091l0 10.919z" fill="#ff0000" fill-rule="nonzero" stroke="none" stroke-width="1" stroke-linecap="butt" stroke-linejoin="miter" stroke-miterlimit="10" stroke-dasharray="" stroke-dashoffset="0" font-family="none" font-weight="none" font-size="none" text-anchor="none" style="mix-blend-mode: normal" data-fill-palette-color="tertiary"></path><g><path xmlns="http://www.w3.org/2000/svg" d="M117.621 228.714v3.674h-11.523v-3.674zM119.266 236.965v3.651h-13.168c-0.506 0-1.058-0.088-1.656-0.264-0.602-0.18-1.158-0.473-1.667-0.88-0.51-0.406-0.935-0.935-1.277-1.587-0.341-0.652-0.512-1.449-0.512-2.392v0-13.168c0-0.253 0.046-0.493 0.138-0.719 0.096-0.222 0.226-0.418 0.391-0.586 0.161-0.169 0.355-0.301 0.581-0.397 0.222-0.092 0.466-0.138 0.731-0.138v0h16.439v3.652h-14.628v11.356c0 0.475 0.127 0.84 0.379 1.092 0.253 0.253 0.623 0.38 1.11 0.38v0zM136.516 225.442h3.876c-0.41 1.28-0.891 2.543-1.444 3.789-0.552 1.246-1.186 2.432-1.903 3.559-0.717 1.127-1.518 2.17-2.403 3.128-0.882 0.962-1.859 1.79-2.933 2.484-1.073 0.698-2.239 1.246-3.496 1.645-1.257 0.399-2.622 0.598-4.094 0.598v0c-0.249 0-0.487-0.048-0.713-0.144-0.226-0.092-0.424-0.22-0.592-0.385-0.169-0.161-0.299-0.353-0.391-0.575-0.092-0.218-0.138-0.454-0.138-0.707v0-13.392h3.645v11.414c0.889 0 1.744-0.192 2.565-0.575 0.82-0.383 1.595-0.891 2.323-1.524 0.728-0.633 1.405-1.351 2.03-2.156 0.621-0.805 1.175-1.631 1.661-2.479 0.487-0.847 0.901-1.677 1.242-2.489 0.341-0.817 0.596-1.547 0.765-2.191zM158.021 230.467v0c0 0.506-0.088 1.05-0.264 1.633-0.176 0.587-0.464 1.129-0.863 1.628-0.399 0.502-0.918 0.922-1.558 1.259-0.64 0.337-1.42 0.506-2.34 0.506v0h-6.584v-3.467h6.584c0.498 0 0.884-0.151 1.156-0.455 0.268-0.307 0.403-0.684 0.402-1.132v0c0-0.479-0.151-0.853-0.454-1.122-0.303-0.272-0.671-0.408-1.104-0.408v0h-6.584c-0.495 0-0.878 0.151-1.15 0.454-0.272 0.307-0.408 0.684-0.408 1.133v0 5.095c0 0.487 0.153 0.866 0.46 1.138 0.303 0.272 0.679 0.408 1.127 0.408v0h6.555v3.479h-6.584c-0.502 0-1.047-0.088-1.633-0.264-0.587-0.18-1.129-0.47-1.627-0.869-0.502-0.395-0.922-0.914-1.26-1.558-0.337-0.64-0.506-1.418-0.506-2.334v0-5.124c0-0.506 0.09-1.052 0.271-1.638 0.176-0.583 0.464-1.125 0.862-1.628 0.399-0.498 0.918-0.916 1.558-1.253 0.64-0.337 1.418-0.506 2.335-0.506v0h6.584c0.506 0 1.052 0.088 1.639 0.264 0.583 0.18 1.125 0.468 1.627 0.863 0.502 0.399 0.922 0.918 1.259 1.558 0.334 0.644 0.5 1.424 0.5 2.34zM173.759 225.442v3.651h-8.211c-0.495 0-0.868 0.123-1.121 0.368-0.253 0.249-0.38 0.613-0.38 1.093v0 10.062h-3.651v-10.062c0-0.629 0.081-1.19 0.242-1.685 0.157-0.498 0.37-0.937 0.638-1.317 0.265-0.38 0.571-0.702 0.92-0.966 0.345-0.268 0.707-0.487 1.087-0.655 0.38-0.169 0.763-0.291 1.15-0.368 0.387-0.081 0.749-0.121 1.086-0.121v0zM192.895 225.442v16.635c0 0.625-0.081 1.188-0.241 1.69-0.157 0.502-0.366 0.943-0.627 1.323-0.265 0.376-0.569 0.698-0.914 0.966-0.345 0.268-0.707 0.487-1.087 0.655-0.38 0.169-0.761 0.291-1.144 0.368-0.383 0.081-0.749 0.121-1.098 0.121v0h-6.584v-3.651h6.584c0.487 0 0.853-0.127 1.098-0.38 0.241-0.253 0.362-0.617 0.362-1.092v0-16.635zM187.784 236.965v3.651h-6.584c-0.525 0-1.085-0.088-1.679-0.264-0.594-0.18-1.148-0.473-1.662-0.88-0.514-0.406-0.939-0.935-1.276-1.587-0.337-0.652-0.506-1.449-0.506-2.392v0-10.051h3.651v10.051c0 0.475 0.127 0.84 0.379 1.092 0.253 0.253 0.627 0.38 1.122 0.38v0zM210.174 225.442v3.651h-6.371v11.523h-3.691v-11.523h-4.744v-3.651h4.744v-4.957h3.691v4.957zM229.449 230.554v10.062h-3.646v-10.062c0-0.479-0.123-0.843-0.368-1.093-0.241-0.245-0.606-0.368-1.092-0.368v0h-6.584v-3.651h6.584c0.345 0 0.709 0.04 1.092 0.121 0.383 0.077 0.765 0.199 1.144 0.368 0.38 0.169 0.742 0.387 1.087 0.655 0.349 0.265 0.654 0.587 0.914 0.966 0.261 0.38 0.471 0.818 0.633 1.317 0.157 0.495 0.236 1.056 0.236 1.685zM216.281 219.025v21.591h-3.646v-21.591zM236.498 219.025v3.3h-3.651v-3.3zM236.498 225.442v15.174h-3.651v-15.174zM256.813 232.192v8.424h-3.651v-8.424c0-0.475-0.082-0.903-0.247-1.282-0.165-0.38-0.387-0.705-0.667-0.977-0.28-0.272-0.61-0.481-0.989-0.627-0.38-0.142-0.79-0.213-1.231-0.213v0h-6.383v11.523h-3.651v-13.363c0-0.253 0.046-0.491 0.138-0.713 0.096-0.218 0.228-0.41 0.397-0.575 0.169-0.161 0.364-0.289 0.586-0.385 0.226-0.092 0.466-0.138 0.719-0.138v0h8.223c0.46 0 0.945 0.052 1.455 0.155 0.51 0.103 1.016 0.268 1.518 0.495 0.498 0.23 0.976 0.521 1.431 0.874 0.452 0.349 0.855 0.774 1.208 1.276 0.349 0.502 0.627 1.079 0.834 1.731 0.207 0.656 0.31 1.395 0.31 2.219zM276.519 230.554v11.523c0 0.625-0.079 1.188-0.236 1.69-0.161 0.502-0.372 0.943-0.633 1.323-0.261 0.376-0.565 0.698-0.914 0.966-0.345 0.268-0.707 0.487-1.087 0.655-0.38 0.169-0.763 0.291-1.15 0.368-0.387 0.081-0.755 0.121-1.104 0.121v0h-6.584v-3.651h6.584c0.498 0 0.868-0.127 1.11-0.38 0.245-0.253 0.368-0.617 0.368-1.092v0-11.523c0-0.479-0.123-0.843-0.368-1.093-0.241-0.245-0.611-0.368-1.11-0.368v0h-6.584c-0.449 0-0.803 0.138-1.063 0.414-0.265 0.276-0.397 0.625-0.397 1.047v0 4.939c0 0.475 0.127 0.84 0.379 1.092 0.253 0.253 0.623 0.38 1.11 0.38v0h6.555v3.651h-6.584c-0.345 0-0.709-0.04-1.092-0.121-0.383-0.081-0.765-0.203-1.144-0.368-0.38-0.169-0.742-0.387-1.087-0.655-0.349-0.268-0.654-0.59-0.914-0.966-0.261-0.38-0.471-0.82-0.633-1.323-0.157-0.502-0.236-1.066-0.236-1.69v0-4.939c0-0.349 0.038-0.715 0.115-1.099 0.081-0.383 0.205-0.765 0.374-1.144 0.169-0.38 0.387-0.742 0.656-1.087 0.265-0.345 0.587-0.65 0.966-0.914 0.38-0.261 0.817-0.471 1.311-0.632 0.498-0.157 1.06-0.236 1.684-0.236v0h6.584c0.349 0 0.717 0.04 1.104 0.121 0.387 0.077 0.771 0.199 1.15 0.368 0.38 0.169 0.742 0.387 1.087 0.655 0.349 0.265 0.654 0.587 0.914 0.966 0.261 0.38 0.471 0.818 0.633 1.317 0.157 0.495 0.236 1.056 0.236 1.685zM294.534 235.493v0c0 0.625-0.081 1.188-0.242 1.69-0.157 0.502-0.368 0.943-0.633 1.323-0.261 0.376-0.564 0.698-0.908 0.966-0.349 0.268-0.713 0.487-1.093 0.655-0.376 0.165-0.759 0.287-1.15 0.368-0.387 0.081-0.753 0.121-1.098 0.121v0h-9.884v-3.651h9.855c0.495 0 0.868-0.127 1.122-0.38 0.253-0.253 0.38-0.617 0.379-1.092v0c-0.046-0.974-0.537-1.461-1.472-1.461v0h-5.658c-0.805 0-1.489-0.14-2.053-0.419-0.56-0.284-1.016-0.634-1.368-1.053-0.349-0.422-0.602-0.876-0.759-1.362-0.153-0.487-0.23-0.941-0.23-1.363v0c0-0.813 0.146-1.499 0.437-2.059 0.287-0.556 0.652-1.006 1.092-1.351 0.441-0.349 0.918-0.6 1.432-0.753 0.514-0.153 0.997-0.23 1.449-0.23v0h8.97v3.651h-8.941c-0.188 0-0.335 0.021-0.443 0.063-0.107 0.042-0.188 0.098-0.241 0.167-0.05 0.069-0.081 0.144-0.092 0.224-0.008 0.081-0.011 0.157-0.012 0.23v0c0.008 0.149 0.035 0.266 0.081 0.351 0.05 0.084 0.109 0.146 0.178 0.184 0.069 0.038 0.149 0.059 0.241 0.063 0.088 0.004 0.174 0.006 0.259 0.006v0h5.658c0.935 0 1.731 0.169 2.386 0.506 0.652 0.337 1.179 0.761 1.582 1.271 0.403 0.51 0.696 1.064 0.879 1.662 0.184 0.602 0.276 1.16 0.276 1.673z" fill="#ca3433" fill-rule="nonzero" stroke="none" stroke-width="1" stroke-linecap="butt" stroke-linejoin="miter" stroke-miterlimit="10" stroke-dasharray="" stroke-dashoffset="0" font-family="none" font-weight="none" font-size="none" text-anchor="none" style="mix-blend-mode: normal" data-fill-palette-color="secondary"></path></g></g><g transform="matrix(1,0,0,1,29.331764404296877,58.70514386235452)"><svg viewBox="0 0 316.416 121.07755102040815" height="121.07755102040815" width="316.416"><g><svg viewBox="0 0 316.416 121.07755102040815" height="121.07755102040815" width="316.416"><g><svg viewBox="0 0 316.416 121.07755102040815" height="121.07755102040815" width="316.416"><g id="textblocktransform"><svg viewBox="0 0 316.416 121.07755102040815" height="121.07755102040815" width="316.416" id="textblock"><g><svg viewBox="0 0 316.416 121.07755102040815" height="121.07755102040815" width="316.416"><g transform="matrix(1,0,0,1,0,0)"><svg width="316.416" viewBox="1 -29.700000762939453 127.3800048828125 48.75" height="121.07755102040815" data-palette-color="#ff0000"><path d="M10.35 3.55L10.35 3.55Q5.85 3.55 5.85-0.2L5.85-0.2Q5.85-2.8 9.9-12.2L9.9-12.2Q14.65-23.2 15.25-26.2L15.25-26.2Q10.1-26.2 6.18-24.68 2.25-23.15 2.25-20.35L2.25-20.35Q2.25-19.6 2.65-19 3.05-18.4 3.45-18.15L3.45-18.15Q4.25-17.65 5.25-17.15L5.25-17.15Q5.85-16.7 5.45-16.6L5.45-16.6Q5.3-16.6 5.1-16.65L5.1-16.65Q3.95-16.9 2.6-18.1 1.25-19.3 1.2-20.85L1.2-20.85Q1-21.35 1-21.75L1-21.75Q1-24.15 3.23-25.8 5.45-27.45 8.22-27.93 11-28.4 12.7-28.4 14.4-28.4 15.35-28.35L15.35-28.35Q15.3-28.7 15.05-29.1 14.8-29.5 15.35-29.65L15.35-29.65Q15.4-29.65 15.5-29.65L15.5-29.65Q16-29.65 16.45-28.9L16.45-28.9 16.7-28.2Q19.55-27.8 21.45-26.95L21.45-26.95Q22.2-26.65 22.65-25.93 23.1-25.2 22.35-25.25L22.35-25.25Q21.9-25.25 20.7-25.68 19.5-26.1 16.75-26.2L16.75-26.2Q16.5-21.15 14-15.45L14-15.45Q9.2-4.25 9.2-0.3L9.2-0.3Q9.2 2.25 11.25 2.25L11.25 2.25Q13.75 2.25 18.35-1.25L18.35-1.25Q23.8-5.3 28.85-13.35L28.85-13.35Q29.5-14.4 31.3-17.35L31.3-17.35Q34.75-23.05 37.1-25.95L37.1-25.95Q38.6-27.8 40.48-28.75 42.35-29.7 43.4-29.7 44.45-29.7 45-29.43 45.55-29.15 45.55-28.93 45.55-28.7 45.3-28.7L45.3-28.7 44.75-28.75Q43.1-28.75 40.1-25.1L40.1-25.1Q38.2-22.8 34.83-18.25 31.45-13.7 29.95-11.75L29.95-11.75Q23.55-3.7 18.9-0.08 14.25 3.55 10.35 3.55ZM37.5-13.85L37.5-13.85Q38.75-13.85 39-13.05L39-13.05Q39.1-12.6 38.87-12.18 38.65-11.75 38.55-11.5 38.45-11.25 38.4-11.1L38.4-11.1Q38.15-10.6 37.9-10.15L37.9-10.15Q35.05-4.45 34.9-2.9L34.9-2.9Q34.85-2.45 34.85-1.75 34.85-1.05 35.25-0.6L35.25-0.6Q35.95 0.2 37.25-0.5 38.55-1.2 40.87-3.3 43.2-5.4 44.65-7.4L44.65-7.4Q44.85-7.65 45.1-7.53 45.35-7.4 45.35-7.28 45.35-7.15 45.25-7L45.25-7Q44.5-5.65 42.55-3.55L42.55-3.55Q39.35-0.1 37.2 0.7L37.2 0.7Q35.95 1.15 35.1 1.15L35.1 1.15Q33.1 1.15 32.45-0.75L32.45-0.75Q32.35-1.1 32.35-1.6L32.35-1.6Q32.35-3.35 33.95-6.9L33.95-6.9Q33.7-6.35 32-4.4L32-4.4Q31.55-3.9 31.3-4.4L31.3-4.4Q31.25-4.5 31.25-4.67 31.25-4.85 31.45-5.1L31.45-5.1Q33.9-8.15 35.3-10.25L35.3-10.25Q35.2-10.5 35.4-10.9L35.4-10.9Q36.4-13.7 37.15-13.85L37.15-13.85Q37.3-13.85 37.5-13.85ZM41.45-20.5L41.45-20.5 41.05-18.9Q41.05-18.45 40.4-17.45 39.75-16.45 39.4-16.45L39.4-16.45Q37.25-16.45 37.25-17.5L37.25-17.5Q37.25-17.7 39.4-19.35L39.4-19.35 40.25-20Q41.05-20.7 41.25-20.7 41.45-20.7 41.45-20.5ZM61.35-25.5L61.35-25.5Q61.95-26.6 61.95-27.2L61.95-27.2Q61.95-28.25 61.1-28.25L61.1-28.25Q60.4-28.25 59.35-27.45L59.35-27.45Q55.35-24.35 51.6-17.65L51.6-17.65Q48.6-12.25 47.2-8.4L47.2-8.4Q50.65-10.75 54.92-16.05 59.2-21.35 61.35-25.5ZM46.45-6.4L46.45-6.4Q45.85-4.7 45.8-4.13 45.75-3.55 45.75-2.58 45.75-1.6 46.25-0.8L46.25-0.8Q47.1 0.55 49.1-0.6L49.1-0.6Q50.6-1.4 52.9-3.53 55.2-5.65 56.45-7.4L56.45-7.4Q56.55-7.55 56.75-7.55L56.75-7.55Q57.2-7.55 57-6.9L57-6.9Q56.25-5.55 54.22-3.45 52.2-1.35 50.55-0.13 48.9 1.1 47.25 1.1L47.25 1.1Q43.45 1.1 43.45-2.6L43.45-2.6Q43.45-2.75 43.45-2.9L43.45-2.9Q43.65-6.4 47-13.48 50.35-20.55 53.05-24.15L53.05-24.15 54.6-26.1Q55.15-26.75 56.2-27.7L56.2-27.7Q58.2-29.6 60.32-29.6 62.45-29.6 63.2-28.3L63.2-28.3Q63.45-27.85 63.45-27 63.45-26.15 62.7-24.6L62.7-24.6Q57.55-15.65 46.45-6.4ZM73.09-25.5L73.09-25.5Q73.69-26.6 73.69-27.2L73.69-27.2Q73.69-28.25 72.84-28.25L72.84-28.25Q72.14-28.25 71.09-27.45L71.09-27.45Q67.09-24.35 63.34-17.65L63.34-17.65Q60.34-12.25 58.94-8.4L58.94-8.4Q62.39-10.75 66.67-16.05 70.94-21.35 73.09-25.5ZM58.19-6.4L58.19-6.4Q57.59-4.7 57.54-4.13 57.49-3.55 57.49-2.58 57.49-1.6 57.99-0.8L57.99-0.8Q58.84 0.55 60.84-0.6L60.84-0.6Q62.34-1.4 64.64-3.53 66.94-5.65 68.19-7.4L68.19-7.4Q68.29-7.55 68.49-7.55L68.49-7.55Q68.94-7.55 68.74-6.9L68.74-6.9Q67.99-5.55 65.97-3.45 63.94-1.35 62.29-0.13 60.64 1.1 58.99 1.1L58.99 1.1Q55.19 1.1 55.19-2.6L55.19-2.6Q55.19-2.75 55.19-2.9L55.19-2.9Q55.39-6.4 58.74-13.48 62.09-20.55 64.79-24.15L64.79-24.15 66.34-26.1Q66.89-26.75 67.94-27.7L67.94-27.7Q69.94-29.6 72.07-29.6 74.19-29.6 74.94-28.3L74.94-28.3Q75.19-27.85 75.19-27 75.19-26.15 74.44-24.6L74.44-24.6Q69.29-15.65 58.19-6.4ZM69.99 0.55L69.99 0.55Q69.19 0.55 68.27 0.08 67.34-0.4 66.69-1.28 66.04-2.15 66.04-3.15 66.04-4.15 66.49-5.05L66.49-5.05Q67.49-7.15 69.72-9.13 71.94-11.1 74.34-12.5 76.74-13.9 78.14-14.25 79.54-14.6 80.87-14.6 82.19-14.6 83.14-13.93 84.09-13.25 84.09-12.5L84.09-12.5Q84.09-12.25 84.04-12.2 83.99-12.15 83.79-12.25L83.79-12.25Q83.19-13.2 81.32-13.2 79.44-13.2 77.07-11.98 74.69-10.75 72.59-8.9L72.59-8.9Q70.84-7.25 69.52-5.18 68.19-3.1 68.19-2.15L68.19-2.15Q68.19-0.3 69.24-0.3 70.29-0.3 72.44-2L72.44-2Q75.99-5 77.29-6.4L77.29-6.4Q81.89-11.35 82.24-11.35L82.24-11.35Q82.84-11.35 83.69-11 84.54-10.65 84.24-10.15L84.24-10.15Q81.69-6.55 81.24-2.9L81.24-2.9Q81.19-2.45 81.19-1.75 81.19-1.05 81.59-0.6L81.59-0.6Q82.34 0.2 83.64-0.5 84.94-1.2 87.27-3.3 89.59-5.4 90.99-7.4L90.99-7.4Q91.19-7.65 91.44-7.53 91.69-7.4 91.69-7.3L91.69-7.3Q91.69-6.55 89.32-4.03 86.94-1.5 85.69-0.6L85.69-0.6Q83.34 1.15 81.34 1.15L81.34 1.15Q79.44 1.15 78.79-0.75L78.79-0.75Q78.64-1.35 78.64-2.1L78.64-2.1Q78.64-4.35 79.59-6.85L79.59-6.85Q79.39-6.75 77.74-4.85 76.09-2.95 73.92-1.2 71.74 0.55 69.99 0.55ZM88.99 19.05L88.99 19.05Q88.59 19.05 87.99 18.9L87.99 18.9Q85.44 18.25 85.44 16.23 85.44 14.2 88.06 11.15 90.69 8.1 99.14 2.5L99.14 2.5Q102.74-4.85 104.14-9.15L104.14-9.15Q101.34-5.75 100.14-4.45L100.14-4.45Q95.64 0.55 92.89 0.55L92.89 0.55Q92.09 0.55 91.16 0.08 90.24-0.4 89.59-1.28 88.94-2.15 88.94-3.15L88.94-3.15Q88.94-5.8 92.64-9.1L92.64-9.1Q94.84-11.1 97.24-12.5 99.64-13.9 101.04-14.25 102.44-14.6 103.74-14.6 105.04-14.6 106.04-13.9 107.04-13.2 107.04-12.5L107.04-12.5Q107.04-12.1 106.64-12.25L106.64-12.25Q106.09-13.2 104.21-13.2 102.34-13.2 99.96-11.98 97.59-10.75 95.69-9.08 93.79-7.4 92.46-5.28 91.14-3.15 91.14-2.15L91.14-2.15Q91.14-0.4 92.14-0.4L92.14-0.4Q93.54-0.4 96.44-2.7L96.44-2.7Q100.74-6.05 104.69-10.85L104.69-10.85Q105.34-11.8 107.39-10.8L107.39-10.8Q108.19-10.4 108.04-10.1L108.04-10.1Q107.39-8.65 105.66-5.08 103.94-1.5 103.09 0.3L103.09 0.3Q104.24-0.3 107.01-2.73 109.79-5.15 111.89-7.6L111.89-7.6Q112.99-8.9 112.99-8L112.99-8Q112.99-6.75 106.99-1.4L106.99-1.4Q103.54 1.7 102.09 2.5L102.09 2.5Q97.84 11.25 96.39 13.5L96.39 13.5Q92.64 19.05 88.99 19.05ZM98.19 4.4L98.19 4.4Q92.19 8.9 89.59 11.53 86.99 14.15 86.99 16.45L86.99 16.45Q86.99 17.15 87.44 17.45 87.89 17.75 88.39 17.75 88.89 17.75 89.84 17 90.79 16.25 91.46 15.53 92.14 14.8 92.64 14.18 93.14 13.55 93.76 12.58 94.39 11.6 94.74 11.05 95.09 10.5 95.71 9.33 96.34 8.15 96.56 7.73 96.79 7.3 97.41 6 98.04 4.7 98.19 4.4ZM122.69-14.55L122.69-14.55Q125.39-14.55 125.39-11.95L125.39-11.95Q125.39-10.6 124.64-9.75L124.64-9.75Q123.39-7.9 120.59-6.53 117.79-5.15 115.84-5L115.84-5Q115.14-4.95 115.09-5.4L115.09-5.4Q115.04-5.6 115.21-5.65 115.39-5.7 115.48-5.7L115.48-5.7Q116.64-5.8 118.44-6.8L118.44-6.8Q121.79-8.6 123.34-10.5L123.34-10.5Q123.99-11.4 123.99-12.23 123.99-13.05 123.19-13.05L123.19-13.05Q122.54-13.05 121.44-12.5L121.44-12.5Q119.09-11.4 116.48-8.68 113.89-5.95 113.09-3.35L113.09-3.35Q112.84-2.55 112.84-1.78 112.84-1 113.48-0.3 114.14 0.4 115.48 0.4L115.48 0.4Q116.98 0.4 118.94-0.4L118.94-0.4Q124.59-2.7 127.64-7.35L127.64-7.35Q127.94-7.75 128.19-7.5L128.19-7.5Q128.38-7.4 128.38-7.25 128.38-7.1 128.24-6.9L128.24-6.9Q126.74-4.4 124.44-2.45L124.44-2.45Q119.99 1.35 115.79 1.35L115.79 1.35Q112.19 1.35 110.73-0.8L110.73-0.8Q110.19-1.65 110.19-2.85 110.19-4.05 110.84-5.7L110.84-5.7Q112.09-8.55 116.19-11.55 120.29-14.55 122.69-14.55Z" opacity="1" transform="matrix(1,0,0,1,0,0)" fill="#ff0000" class="wordmark-text-0" data-fill-palette-color="primary" id="text-0"></path></svg></g></svg></g></svg></g></svg></g><g></g></svg></g></svg></g></svg></g><defs></defs></svg><rect width="375.07952880859375" height="238.4878387451172" fill="none" stroke="none" visibility="hidden"></rect></g></svg></g></svg>